<?xml version="1.0" encoding="utf-8"?>
<!-- Generator: Adobe Illustrator 27.7.0, SVG Export Plug-In . SVG Version: 6.00 Build 0)  -->
<svg version="1.1" id="Layer_1" xmlns="http://www.w3.org/2000/svg" xmlns:xlink="http://www.w3.org/1999/xlink" x="0px" y="0px"
	 viewBox="0 0 3600 1884" enable-background="new 0 0 3600 1884" xml:space="preserve">
<g>
	<g>
		<defs>
			<rect id="SVGID_1_" width="3600" height="1884"/>
		</defs>
	</g>
	<path fill="#ECE6DA" d="M2615.91,593.31c-71.58,0-140.82,9.93-206.46,28.44c-168.78-217.32-432.57-357.21-729.06-357.21
		c-439.771,0-807.605,307.678-900.116,719.494c-12.09-2.534-24.615-3.885-37.458-3.885c-100.366,0-181.728,81.362-181.728,181.728
		c0,12.469,1.261,24.644,3.653,36.407c-199.766,51.34-347.391,232.66-347.391,448.446c0,86.73,23.85,167.88,65.34,237.27h2872.92
		c135.09-136.92,218.49-324.96,218.49-532.5C3374.1,932.76,3034.65,593.31,2615.91,593.31z"/>
	<g>
		<path fill="#FFFFFF" d="M1368.554,616.781c49.694,0,91.602,33.329,104.594,78.852H1263.96
			C1276.953,650.11,1318.861,616.781,1368.554,616.781z"/>
		<path fill="#FFFFFF" d="M858.738,579.477c73.204,0,134.938,49.096,154.077,116.157H704.661
			C723.8,628.573,785.535,579.477,858.738,579.477z"/>
		<path fill="#FFFFFF" d="M1336.909,695.634c-23.626-81.753-117.251-142.816-229.164-142.816
			c-111.913,0-205.538,61.063-229.164,142.816H1336.909z"/>
	</g>
	<g>
		<path fill="#CCC5C2" d="M873.126,679.174c27.532,0,50.751,18.466,57.949,43.687H815.176
			C822.375,697.64,845.593,679.174,873.126,679.174z"/>
		<path fill="#CCC5C2" d="M590.667,658.506c40.558,0,74.761,27.201,85.365,64.355h-170.73
			C515.906,685.707,550.11,658.506,590.667,658.506z"/>
		<path fill="#CCC5C2" d="M855.593,722.861c-13.09-45.294-64.962-79.126-126.966-79.126s-113.876,33.831-126.966,79.126H855.593z"/>
	</g>
	<path fill="#EBCCB9" d="M2956.547,1490.837c14.615,10.285,24.536,22.939,28.849,29.054c0.279-0.444,0.557-0.886,0.839-1.332
		c7.207-11.399,15.661-24.072,25.307-37.459c-6.107-3.442-20.295-12.324-32.381-26.533c-15.892-18.684-22.116-39.495-22.116-39.495
		s19.542,9.483,35.434,28.167c11.689,13.743,18.143,28.626,20.741,35.542c8.041-11.069,16.894-22.599,26.536-34.295
		c-5.129-5.022-16.375-17.138-24.313-33.731c-10.586-22.127-11.281-43.837-11.281-43.837s16.467,14.165,27.053,36.292
		c7.396,15.459,9.961,30.704,10.838,38.495c9.688-11.625,20.159-23.382,31.38-34.98c-4.291-5.725-13.583-19.432-18.909-37.078
		c-7.087-23.483-4.463-45.045-4.463-45.045s14.115,16.51,21.202,39.993c4.883,16.179,5.156,31.445,4.854,39.377
		c7.616-7.771,15.57-15.457,23.862-22.97c-1.815-6.977-5.196-23.112-3.465-41.374c2.315-24.419,12.895-43.39,12.895-43.39
		s6.826,20.621,4.511,45.04c-1.406,14.838-5.862,27.654-9.144,35.435c5.875-5.194,11.908-10.296,18.106-15.274
		c4.594-7.081,12.712-17.989,24.231-27.5c18.914-15.618,39.813-21.538,39.813-21.538s-9.767,19.402-28.681,35.02
		c-11.396,9.41-23.504,15.294-31.336,18.49c-6.415,5.145-12.65,10.427-18.716,15.806c7.956-0.535,23.144-0.696,39.374,3.673
		c23.686,6.376,40.614,19.986,40.614,19.986s-21.473,3.273-45.159-3.103c-17.988-4.842-32.069-13.851-37.808-17.908
		c-8.351,7.52-16.353,15.224-24.02,23.015c7.209,1.538,22.911,5.711,38.261,15.248c20.834,12.945,33.111,30.865,33.111,30.865
		s-21.503-3.069-42.338-16.014c-15.83-9.836-26.712-22.535-31.03-28.072c-11.567,11.871-22.333,23.928-32.279,35.848
		c7.413,0.923,23.267,3.719,39.24,11.784c21.896,11.055,35.707,27.821,35.707,27.821s-21.69-1.158-43.587-12.214
		c-16.492-8.326-28.393-19.889-33.265-25.092c-9.755,11.798-18.702,23.435-26.817,34.6c7.536,0.68,23.328,2.933,39.418,10.341
		c22.281,10.258,36.687,26.515,36.687,26.515s-21.718-0.375-43.999-10.633c-16.567-7.627-28.774-18.566-33.949-23.678
		c-9.513,13.207-17.855,25.711-24.971,36.963c-0.356,0.563-0.708,1.123-1.06,1.683c4.845,0.863,23.209,4.695,41.095,15.807
		c20.835,12.945,33.111,30.865,33.111,30.865s-21.503-3.069-42.338-16.014c-17.892-11.117-29.463-25.891-32.378-29.846
		c-29.011,46.266-43.933,81.173-44.083,81.527l-5.533-2.347c0.15-0.353,14.903-34.881,43.544-80.806
		c-7.139-1.961-22.525-7.027-37.258-17.395c-20.059-14.117-31.29-32.71-31.29-32.71S2936.488,1476.721,2956.547,1490.837z"/>
	<path fill="#EBCCB9" d="M2775.614,1392.179c26.053,8.734,46.232,23.019,55.273,30.135c0.217-0.776,0.432-1.551,0.651-2.331
		c5.611-19.963,12.5-42.35,20.831-66.314c-10.51-2.389-35.318-9.241-59.369-24.869c-31.625-20.548-49.939-48.477-49.939-48.477
		s32.961,5.386,64.586,25.935c23.261,15.114,39.309,34.208,46.177,43.257c6.985-19.842,14.964-40.722,24.032-62.19
		c-9.763-5.147-31.656-18.057-50.644-39.019c-25.319-27.952-35.882-59.636-35.882-59.636s30.488,13.636,55.807,41.588
		c17.689,19.528,28.167,40.864,32.881,51.958c9.168-21.385,19.43-43.309,30.868-65.328c-8.838-6.55-28.552-22.664-44.152-46.324
		c-20.76-31.487-26.367-64.411-26.367-64.411s28.051,18.126,48.81,49.613c14.303,21.694,21.413,44.068,24.452,55.888
		c7.809-14.796,16.151-29.615,25.068-44.329c-5.74-9.483-17.811-31.771-23.283-59.44c-7.318-36.998-0.064-69.598-0.064-69.598
		s19.118,27.384,26.436,64.382c4.447,22.481,3.512,43.323,2.095,56.23c6.374-10.234,13.023-20.403,19.968-30.461
		c3.657-12.452,10.828-32.091,23.622-51.167c21.007-31.322,49.2-49.227,49.2-49.227s-5.866,32.879-26.873,64.201
		c-12.656,18.871-27.913,32.862-38.049,41.012c-7.191,10.399-14.058,20.921-20.633,31.512c11.487-4.283,33.795-11.194,59.629-11.887
		c37.701-1.012,68.624,11.605,68.624,11.605s-30.202,14.257-67.903,15.268c-28.632,0.768-53.338-6.32-63.576-9.776
		c-9.001,14.749-17.407,29.617-25.28,44.465c11.298-0.901,36.267-1.651,63.076,5.658c36.386,9.921,62.348,30.931,62.348,30.931
		s-33.033,4.926-69.419-4.995c-27.646-7.537-49.26-21.469-58.055-27.73c-11.829,22.573-22.394,45.069-31.812,67.002
		c11.329-1.896,35.917-4.743,62.996,0.123c37.12,6.669,64.835,25.305,64.835,25.305s-32.469,7.823-69.589,1.154
		c-27.958-5.023-50.574-16.832-60.039-22.357c-9.19,21.669-17.26,42.747-24.312,62.763c11.403-2.308,35.662-5.927,62.625-2.081
		c37.337,5.325,65.706,22.949,65.706,22.949s-32.165,8.99-69.502,3.664c-27.762-3.96-50.554-14.715-60.425-19.973
		c-8.214,23.64-15.012,45.729-20.554,65.434c-0.277,0.986-0.55,1.966-0.823,2.945c7.518-0.857,36.261-3.28,67.496,5.236
		c36.386,9.92,62.347,30.931,62.347,30.931s-33.032,4.926-69.419-4.995c-31.247-8.519-54.788-25.205-60.82-29.752
		c-22.419,80.917-29.069,138.907-29.135,139.493l-9.184-1.027c0.065-0.586,6.633-57.943,28.658-138.195
		c-11.381,0.246-36.278-0.458-62.54-9.261c-35.759-11.987-60.475-34.449-60.475-34.449S2739.855,1380.192,2775.614,1392.179z"/>
	<g>
		<path fill="#CDBAA8" d="M848.543,1259.872c-9.042,21.759-32.101,32.861-32.101,32.861s-8.4-24.175,0.642-45.934
			c9.042-21.759,32.102-32.861,32.102-32.861S857.585,1238.113,848.543,1259.872z"/>
		<path fill="#CDBAA8" d="M898.081,1353.884c-12.524,19.958-37.105,27.084-37.105,27.084s-4.275-25.233,8.249-45.192
			c12.524-19.958,37.105-27.084,37.105-27.084S910.605,1333.925,898.081,1353.884z"/>
		<path fill="#CDBAA8" d="M754.255,1195.739c16.427,16.892,17.533,42.461,17.533,42.461s-25.528-1.818-41.956-18.71
			s-17.533-42.461-17.533-42.461S737.827,1178.847,754.255,1195.739z"/>
		<path fill="#CDBAA8" d="M774.815,1276.642c23.562,0.092,42.597,17.199,42.597,17.199s-19.167,16.959-42.73,16.868
			c-23.562-0.092-42.597-17.199-42.597-17.199S751.253,1276.55,774.815,1276.642z"/>
		<path fill="#CDBAA8" d="M818.174,1363.233c23.562,0.092,42.597,17.199,42.597,17.199s-19.167,16.959-42.73,16.868
			c-23.562-0.092-42.597-17.199-42.597-17.199S794.612,1363.141,818.174,1363.233z"/>
		<g>
			<path fill="#CDBAA8" d="M906.369,1566.477l-4.794,0.236c-0.028-0.556-2.956-56.377-22.136-125.852
				c-11.253-40.759-25.815-78.174-43.283-111.206c-21.797-41.218-48.203-75.684-78.485-102.441l3.178-3.596
				c30.732,27.154,57.506,62.095,79.58,103.853c17.632,33.354,32.323,71.111,43.666,112.223
				C903.398,1509.659,906.341,1565.917,906.369,1566.477z"/>
		</g>
	</g>
	<g>
		<path fill="#CDBAA8" d="M697.821,1380.189c-0.461,19.141-14.672,34.325-14.672,34.325s-13.464-15.85-13.003-34.991
			s14.672-34.325,14.672-34.325S698.282,1361.048,697.821,1380.189z"/>
		<path fill="#CDBAA8" d="M762.961,1436.872c-3.628,18.8-20.16,31.417-20.16,31.417s-10.649-17.863-7.021-36.663
			c3.628-18.8,20.16-31.417,20.16-31.417S766.589,1418.072,762.961,1436.872z"/>
		<path fill="#CDBAA8" d="M607.548,1359.287c17.407,7.974,25.753,27.023,25.753,27.023s-19.876,6.119-37.283-1.855
			c-17.407-7.974-25.753-27.023-25.753-27.023S590.141,1351.312,607.548,1359.287z"/>
		<path fill="#CDBAA8" d="M646.884,1414.546c17.879-6.85,37.325,0.522,37.325,0.522s-9.542,18.478-27.421,25.328
			c-17.879,6.85-37.325-0.522-37.325-0.522S629.004,1421.396,646.884,1414.546z"/>
		<path fill="#CDBAA8" d="M705.164,1467.421c17.879-6.85,37.325,0.522,37.325,0.522s-9.542,18.478-27.421,25.328
			c-17.879,6.85-37.325-0.522-37.325-0.522S687.285,1474.271,705.164,1467.421z"/>
		<g>
			<path fill="#CDBAA8" d="M831.672,1595.512l-3.563,1.587c-0.184-0.413-18.795-41.847-53.73-88.853
				c-20.495-27.577-42.516-51.649-65.451-71.547c-28.619-24.829-58.747-43.188-89.549-54.568l1.352-3.658
				c31.258,11.549,61.805,30.16,90.793,55.316c23.154,20.093,45.373,44.386,66.04,72.204
				C812.735,1553.335,831.486,1595.096,831.672,1595.512z"/>
		</g>
	</g>
	<path fill="#F6F3ED" d="M2638.096,1750.689H961.904c-30.977,0-56.089-25.112-56.089-56.089v0c0-30.977,25.112-56.089,56.089-56.089
		h1676.191c30.977,0,56.089,25.112,56.089,56.089v0C2694.185,1725.578,2669.073,1750.689,2638.096,1750.689z"/>
	<g>
		<path fill="#CDBAA8" d="M632.328,1584.246c-44.203,0-81.481,29.646-93.038,70.14h186.076
			C713.809,1613.893,676.531,1584.246,632.328,1584.246z"/>
		<path fill="#CDBAA8" d="M1085.814,1551.064c-65.115,0-120.029,43.672-137.053,103.323h274.107
			C1205.843,1594.735,1150.93,1551.064,1085.814,1551.064z"/>
		<path fill="#CDBAA8" d="M660.477,1654.386c21.016-72.72,104.296-127.036,203.844-127.036s182.828,54.316,203.843,127.036H660.477z
			"/>
	</g>
	<g>
		<path fill="#EBCCB9" d="M2981.475,1570.83c48.846,0,90.039,32.76,102.81,77.507h-205.621
			C2891.435,1603.59,2932.628,1570.83,2981.475,1570.83z"/>
		<path fill="#EBCCB9" d="M2480.354,1534.162c71.955,0,132.636,48.259,151.449,114.175h-302.899
			C2347.718,1582.421,2408.399,1534.162,2480.354,1534.162z"/>
		<path fill="#EBCCB9" d="M2950.369,1648.337c-23.223-80.359-115.251-140.38-225.255-140.38s-202.032,60.021-225.255,140.38
			H2950.369z"/>
	</g>
	<g>
		<path fill="#2D334A" d="M719.386,1641.262c-21.099,0-38.891,14.151-44.408,33.478h88.816
			C758.277,1655.412,740.485,1641.262,719.386,1641.262z"/>
		<path fill="#2D334A" d="M935.839,1625.424c-31.08,0-57.291,20.845-65.417,49.317h130.834
			C993.13,1646.269,966.919,1625.424,935.839,1625.424z"/>
		<path fill="#2D334A" d="M732.822,1674.74c10.031-34.71,49.781-60.635,97.296-60.635c47.515,0,87.265,25.925,97.296,60.635H732.822
			z"/>
	</g>
	<g>
		<path fill="#B7AEA9" d="M2296.133,345.447c26.16,0,48.222,17.545,55.062,41.51h-110.124
			C2247.911,362.992,2269.972,345.447,2296.133,345.447z"/>
		<path fill="#B7AEA9" d="M2027.75,325.808c38.537,0,71.036,25.846,81.111,61.148h-162.222
			C1956.714,351.654,1989.213,325.808,2027.75,325.808z"/>
		<path fill="#B7AEA9" d="M2279.474,386.957c-12.438-43.037-61.725-75.182-120.639-75.182c-58.914,0-108.201,32.145-120.639,75.182
			H2279.474z"/>
	</g>
	<g>
		<path fill="#CCC5C2" d="M2733.997,725.656c55.363,0,102.051,37.131,116.526,87.847H2617.47
			C2631.945,762.786,2678.634,725.656,2733.997,725.656z"/>
		<path fill="#CCC5C2" d="M2870.364,752.88c38.205,0,70.425,25.624,80.414,60.623H2789.95
			C2799.939,778.504,2832.159,752.88,2870.364,752.88z"/>
		<path fill="#CCC5C2" d="M2697.037,813.503c-15.652-54.159-77.675-94.611-151.814-94.611s-136.162,40.452-151.814,94.611H2697.037z
			"/>
	</g>
	<g>
		<path fill="#FFFFFF" d="M2820.918,782.505c-33.863,0-62.419,22.711-71.273,53.732h142.546
			C2883.338,805.216,2854.781,782.505,2820.918,782.505z"/>
		<path fill="#FFFFFF" d="M2737.51,799.156c-23.368,0-43.075,15.673-49.185,37.08h98.37
			C2780.585,814.829,2760.878,799.156,2737.51,799.156z"/>
		<path fill="#FFFFFF" d="M2843.524,836.236c9.573-33.126,47.51-57.868,92.857-57.868c45.347,0,83.283,24.742,92.856,57.868
			H2843.524z"/>
	</g>
	<g>
		<path fill="#FFFFFF" d="M1609.786,416.634c20.782,0,38.308,13.938,43.742,32.976h-87.484
			C1571.478,430.573,1589.004,416.634,1609.786,416.634z"/>
		<path fill="#FFFFFF" d="M1396.579,401.033c30.614,0,56.432,20.532,64.436,48.577h-128.872
			C1340.147,421.566,1365.965,401.033,1396.579,401.033z"/>
		<path fill="#FFFFFF" d="M1596.552,449.611c-9.881-34.189-49.035-59.726-95.838-59.726c-46.802,0-85.957,25.537-95.837,59.726
			H1596.552z"/>
	</g>
	<g>
		<path fill="#33394F" d="M2622.313,1523.553c4.087-1.986,9.011-0.282,10.997,3.805c0.889,1.831,1.034,3.827,0.561,5.654
			c7.784,5.764,15.106,12.025,21.919,18.486c-2.211-7.436-4.936-18.668-5.405-30.055c-2.156-0.626-4.053-2.119-5.112-4.298
			c-1.986-4.087-0.282-9.011,3.805-10.997c4.088-1.986,9.011-0.283,10.997,3.805s0.282,9.011-3.805,10.997
			c-0.471,0.229-0.954,0.403-1.441,0.536c0.762,17.042,6.91,34.183,7.892,36.822c14.602,14.851,26.508,30.175,35.145,42.47
			c15.522,22.097,24.161,39.487,24.246,39.66l-3.979,1.964c-0.084-0.17-8.571-17.254-23.898-39.074
			c-4.609-6.561-10.164-13.996-16.563-21.754c-3.177-0.337-15.138-1.181-30.546,2.955c0.32,3.324-1.407,6.646-4.587,8.191
			c-4.087,1.986-9.011,0.283-10.997-3.805s-0.282-9.011,3.805-10.997c3.601-1.75,7.848-0.633,10.166,2.451
			c12.202-3.345,22.326-3.709,28.194-3.512c-11.684-13.641-25.868-27.919-42.085-39.987c-0.609,0.588-1.315,1.094-2.118,1.484
			c-4.087,1.986-9.011,0.283-10.997-3.805C2616.522,1530.462,2618.226,1525.539,2622.313,1523.553z"/>
		<path fill="#33394F" d="M2728.457,1569.996c-2.854-1.435-13.75-6.438-29.63-7.994c-0.871,3.224-3.658,5.725-7.178,6.051
			c-4.525,0.419-8.533-2.91-8.952-7.434c-0.419-4.525,2.909-8.533,7.434-8.952c3.986-0.369,7.568,2.171,8.651,5.874
			c12.598,1.167,22.202,4.392,27.625,6.644c-6.13-16.882-14.377-35.242-25.303-52.248c-0.777,0.336-1.617,0.56-2.505,0.643
			c-4.525,0.419-8.533-2.909-8.952-7.434c-0.419-4.525,2.909-8.533,7.434-8.952c4.525-0.419,8.533,2.91,8.952,7.434
			c0.188,2.026-0.38,3.946-1.467,5.489c5.255,8.136,9.902,16.575,14.002,25.022c0.55-7.738,1.956-19.21,5.528-30.033
			c-1.798-1.346-3.047-3.41-3.27-5.823c-0.419-4.525,2.909-8.533,7.435-8.952c4.525-0.419,8.533,2.909,8.952,7.434
			s-2.909,8.533-7.434,8.952c-0.521,0.048-1.035,0.042-1.538-0.006c-5.289,16.217-5.573,34.424-5.584,37.241
			c8.435,19.043,14.181,37.578,17.934,52.128c6.745,26.148,8.704,45.467,8.723,45.658l-4.416,0.437
			c-0.019-0.189-1.944-19.167-8.604-44.988C2734.293,1588.426,2731.714,1579.511,2728.457,1569.996z"/>
	</g>
	<g>
		<path fill="#33394F" d="M2761.469,1628.012c24.57,0,45.291,16.479,51.715,38.987h-103.429
			C2716.178,1644.491,2736.899,1628.012,2761.469,1628.012z"/>
		<path fill="#33394F" d="M2821.99,1640.095c16.956,0,31.255,11.372,35.688,26.905h-71.376
			C2790.735,1651.467,2805.034,1640.095,2821.99,1640.095z"/>
		<path fill="#33394F" d="M2745.066,1666.999c-6.946-24.036-34.472-41.989-67.375-41.989s-60.429,17.953-67.375,41.989H2745.066z"/>
	</g>
	<g>
		<path fill="#EBCCB9" d="M1402.407,441.393c12.486,0,23.016,8.374,26.28,19.812h-52.561
			C1379.392,449.768,1389.922,441.393,1402.407,441.393z"/>
		<path fill="#EBCCB9" d="M1274.312,432.02c18.393,0,33.904,12.336,38.713,29.186h-77.427
			C1240.407,444.356,1255.918,432.02,1274.312,432.02z"/>
		<path fill="#EBCCB9" d="M1394.456,461.206c-5.936-20.541-29.46-35.884-57.58-35.884c-28.119,0-51.643,15.342-57.58,35.884
			H1394.456z"/>
	</g>
	<g>
		<g>
			
				<ellipse transform="matrix(0.9997 -0.0231 0.0231 0.9997 -12.6103 45.1275)" fill="#44495E" cx="1950.173" cy="569.276" rx="88.539" ry="88.539"/>
		</g>
		<polyline fill="none" stroke="#95B7C3" stroke-width="28" stroke-miterlimit="10" points="1898.973,545.771 1948.776,595.574 
			2051.923,492.427 		"/>
		<path fill="#44495E" d="M1913.622,585.88c0,0-4.121,45.448-67.432,56.411c0,0,45.989-17.699,46.902-59.673L1913.622,585.88z"/>
	</g>
	<g>
		<g>
			<g>
				<rect x="1133.917" y="1044.063" fill="#95B7C3" width="28.026" height="637.855"/>
				<rect x="2510.007" y="1044.063" fill="#95B7C3" width="28.026" height="637.855"/>
			</g>
			<rect x="1096.664" y="1670.709" fill="#95B7C3" width="100.662" height="23.891"/>
			<rect x="2473.688" y="1670.709" fill="#95B7C3" width="100.662" height="23.891"/>
			<rect x="1147.93" y="1483.825" fill="#95B7C3" width="1376.09" height="50.337"/>
		</g>
		<g>
			<g>
				<defs>
					
						<rect id="SVGID_00000067230868242418478920000011421032381609704356_" x="1082.861" y="1151.87" width="1506.227" height="114.486"/>
				</defs>
				<use xlink:href="#SVGID_00000067230868242418478920000011421032381609704356_"  overflow="visible" fill="#FA858B"/>
				<clipPath id="SVGID_00000056429441836289739290000012371948663566674593_">
					<use xlink:href="#SVGID_00000067230868242418478920000011421032381609704356_"  overflow="visible"/>
				</clipPath>
				
					<rect x="1161.312" y="1028.502" transform="matrix(0.7071 -0.7071 0.7071 0.7071 -501.6284 1207.188)" clip-path="url(#SVGID_00000056429441836289739290000012371948663566674593_)" fill="#FFFFFF" width="90.157" height="361.223"/>
				
					<rect x="1439.214" y="1028.502" transform="matrix(0.7071 -0.7071 0.7071 0.7071 -420.2332 1403.6925)" clip-path="url(#SVGID_00000056429441836289739290000012371948663566674593_)" fill="#FFFFFF" width="90.157" height="361.223"/>
				
					<rect x="1717.115" y="1028.502" transform="matrix(0.7071 -0.7071 0.7071 0.7071 -338.8379 1600.1982)" clip-path="url(#SVGID_00000056429441836289739290000012371948663566674593_)" fill="#FFFFFF" width="90.157" height="361.223"/>
				
					<rect x="1995.016" y="1028.502" transform="matrix(0.7071 -0.7071 0.7071 0.7071 -257.4426 1796.7041)" clip-path="url(#SVGID_00000056429441836289739290000012371948663566674593_)" fill="#FFFFFF" width="90.157" height="361.223"/>
				
					<rect x="2272.917" y="1028.502" transform="matrix(0.7071 -0.7071 0.7071 0.7071 -176.0474 1993.2098)" clip-path="url(#SVGID_00000056429441836289739290000012371948663566674593_)" fill="#FFFFFF" width="90.157" height="361.223"/>
				
					<rect x="2550.819" y="1028.502" transform="matrix(0.7071 -0.7071 0.7071 0.7071 -94.6521 2189.7156)" clip-path="url(#SVGID_00000056429441836289739290000012371948663566674593_)" fill="#FFFFFF" width="90.157" height="361.223"/>
			</g>
		</g>
		<g>
			<polygon fill="#F9BF50" points="1154.516,931.215 1140.929,931.215 1116.043,1022.493 1179.403,1022.493 			"/>
			
				<ellipse transform="matrix(0.1602 -0.9871 0.9871 0.1602 56.136 1905.2137)" fill="#F8535B" cx="1147.723" cy="919.617" rx="23.705" ry="23.705"/>
			
				<ellipse transform="matrix(0.9239 -0.3827 0.3827 0.9239 -263.2585 507.2726)" fill="#FB9DA2" cx="1143.488" cy="915.382" rx="11.853" ry="11.853"/>
		</g>
		<g>
			<polygon fill="#F9BF50" points="2530.813,931.215 2517.226,931.215 2492.34,1022.493 2555.699,1022.493 			"/>
			
				<ellipse transform="matrix(0.1602 -0.9871 0.9871 0.1602 1211.9745 3263.7388)" fill="#F8535B" cx="2524.02" cy="919.617" rx="23.705" ry="23.705"/>
			
				<ellipse transform="matrix(0.9239 -0.3827 0.3827 0.9239 -158.4944 1033.9578)" fill="#FB9DA2" cx="2519.785" cy="915.382" rx="11.853" ry="11.853"/>
		</g>
		<g>
			<g>
				<defs>
					
						<rect id="SVGID_00000159438375212857870100000010837315217157670560_" x="1082.861" y="992.367" width="1506.227" height="114.486"/>
				</defs>
				<use xlink:href="#SVGID_00000159438375212857870100000010837315217157670560_"  overflow="visible" fill="#FA858B"/>
				<clipPath id="SVGID_00000182516224878408456880000015286418299195988143_">
					<use xlink:href="#SVGID_00000159438375212857870100000010837315217157670560_"  overflow="visible"/>
				</clipPath>
				
					<rect x="1161.312" y="868.998" transform="matrix(0.7071 -0.7071 0.7071 0.7071 -388.8422 1160.4717)" clip-path="url(#SVGID_00000182516224878408456880000015286418299195988143_)" fill="#FFFFFF" width="90.157" height="361.223"/>
				
					<rect x="1439.214" y="868.998" transform="matrix(0.7071 -0.7071 0.7071 0.7071 -307.4469 1356.9764)" clip-path="url(#SVGID_00000182516224878408456880000015286418299195988143_)" fill="#FFFFFF" width="90.157" height="361.223"/>
				
					<rect x="1717.115" y="868.998" transform="matrix(0.7071 -0.7071 0.7071 0.7071 -226.0514 1553.4824)" clip-path="url(#SVGID_00000182516224878408456880000015286418299195988143_)" fill="#FFFFFF" width="90.157" height="361.223"/>
				
					<rect x="1995.016" y="868.998" transform="matrix(0.7071 -0.7071 0.7071 0.7071 -144.656 1749.9883)" clip-path="url(#SVGID_00000182516224878408456880000015286418299195988143_)" fill="#FFFFFF" width="90.157" height="361.223"/>
				
					<rect x="2272.917" y="868.998" transform="matrix(0.7071 -0.7071 0.7071 0.7071 -63.2606 1946.4943)" clip-path="url(#SVGID_00000182516224878408456880000015286418299195988143_)" fill="#FFFFFF" width="90.157" height="361.223"/>
				
					<rect x="2550.819" y="868.998" transform="matrix(0.7071 -0.7071 0.7071 0.7071 18.1348 2143.0002)" clip-path="url(#SVGID_00000182516224878408456880000015286418299195988143_)" fill="#FFFFFF" width="90.157" height="361.223"/>
			</g>
		</g>
	</g>
	<g>
		<polygon fill="#F8535B" points="2330.159,1348.783 2269.273,1348.783 2157.751,1680.404 2441.681,1680.404 		"/>
		<rect x="2090.469" y="1644.417" fill="#F97279" width="418.494" height="52.584"/>
		<polygon fill="#FFFFFF" points="2411.977,1592.076 2187.456,1592.076 2203.654,1543.92 2395.778,1543.92 		"/>
		<polygon fill="#FFFFFF" points="2374.237,1479.86 2225.195,1479.86 2241.385,1431.705 2358.047,1431.705 		"/>
	</g>
	<g>
		<polygon fill="#F8535B" points="1451.882,1431.705 1405.494,1431.705 1320.529,1684.356 1536.846,1684.356 		"/>
		<rect x="1269.269" y="1656.939" fill="#F97279" width="318.837" height="40.062"/>
		<polygon fill="#FFFFFF" points="1514.215,1617.062 1343.16,1617.062 1355.501,1580.374 1501.875,1580.374 		"/>
		<polygon fill="#FFFFFF" points="1485.463,1531.568 1371.912,1531.568 1384.247,1494.88 1473.129,1494.88 		"/>
	</g>
	<g>
		<polygon fill="#F8535B" points="1023.749,1431.705 977.362,1431.705 892.397,1684.356 1108.714,1684.356 		"/>
		<rect x="841.137" y="1656.939" fill="#F97279" width="318.837" height="40.062"/>
		<polygon fill="#FFFFFF" points="1086.083,1617.062 915.028,1617.062 927.369,1580.374 1073.742,1580.374 		"/>
		<polygon fill="#FFFFFF" points="1057.331,1531.568 943.78,1531.568 956.115,1494.88 1044.996,1494.88 		"/>
	</g>
	<g>
		<path fill="#D7AC94" d="M1766.516,1072.073c2.472-36.575,20.58-45.307,33.762-46.73c0.853-0.314,1.729-0.59,2.645-0.786
			c10.741-2.298,21.249,4.762,23.179,15.575l53.84,301.548c0.849,4.755-2.224,9.328-6.947,10.339
			c-1.579,0.338-3.15,0.229-4.59-0.231c-11.254-1.382-21.02-8.834-25.186-19.642
			C1821.529,1275.875,1763.301,1119.632,1766.516,1072.073z"/>
		<path fill="#F3CBB6" d="M1714.147,1345.45c7.812-9.083,15.009-12.797,24.708-10.355c10.652,2.682,16.961,13.657,13.917,24.211
			l-84.879,294.322c-1.339,4.641-6.115,7.387-10.799,6.208c-4.684-1.179-7.591-5.859-6.572-10.581l2.792-12.939
			C1687.816,1428.93,1689.075,1379.195,1714.147,1345.45z"/>
		<path fill="#D7AC94" d="M1716.772,1066.45c12.304-34.532,32.102-38.023,45.175-35.815c0.906-0.07,1.824-0.099,2.759-0.039
			c10.962,0.703,19.159,10.349,18.083,21.281l-30.007,304.844c-0.473,4.807-4.672,8.375-9.492,8.066
			c-1.612-0.103-3.094-0.635-4.355-1.468c-10.457-4.384-17.834-14.206-18.911-25.739
			C1714.418,1277.533,1700.772,1111.353,1716.772,1066.45z"/>
		<path fill="#3B3E53" d="M1658.279,1649.012c6.568-0.07,12.35-1.11,15.782-2.637c22.998,2.97,69.885,13.25,68.554,24.746
			c-0.49,4.236-91.77,2.438-98.116,1.774c-4.472-0.468-2.786-13.705-1.399-21.484c0.392-2.197,2.505-3.616,4.7-3.213
			C1650.813,1648.75,1654.411,1649.053,1658.279,1649.012z"/>
		<g>
			<path fill="#F3CBB6" d="M1836.73,1363.073c2.387-11.741,6.857-18.493,16.515-21.094c10.606-2.856,21.469,3.646,23.961,14.344
				l69.513,298.325c1.096,4.705-1.734,9.432-6.398,10.688c-4.664,1.256-9.485-1.411-10.9-6.03l-3.876-12.656
				C1854.476,1448.789,1831.309,1404.762,1836.73,1363.073z"/>
			<path fill="#3B3E53" d="M1935.46,1649.012c6.568-0.07,12.35-1.11,15.782-2.637c22.998,2.97,69.885,13.25,68.554,24.746
				c-0.49,4.236-91.77,2.438-98.116,1.774c-4.472-0.468-2.786-13.705-1.4-21.484c0.392-2.197,2.505-3.616,4.7-3.213
				C1927.994,1648.75,1931.592,1649.053,1935.46,1649.012z"/>
			<path fill="#50556A" d="M1740.547,1038.602c0,0,29.381,148.937,94.057,310.181c0,0-23.147,65.047,76.726,265.855l32.572-2.055
				c0,0-61.793-259.531-64.973-281.131c-3.18-21.6-49.486-294.825-55.828-308.959L1740.547,1038.602z"/>
		</g>
		<path fill="#50556A" d="M1709.556,1015.702c0,0-13.626,100.781,3.808,319.508c0,0-45.547,55.56-60.914,272.723l34.496-0.36
			c0,0,73.369-248.074,74.494-259.045c1.125-10.972,38.137-345.773,38.137-345.773L1709.556,1015.702z"/>
		<path fill="#B07462" d="M1729.504,770.243c14.562-21.131,13.856-24.057,13.586-24.655c-3.086-6.843-36.023-1.698-47.176,9.958
			l-132.958,140.342c-2.535,2.238,1.102,6.509,3.252,9.119c0.719,0.873,1.628,1.496,2.617,1.871
			c6.773,4.14,17.22,3.145,24.209-0.968C1629.418,884.494,1710.568,797.721,1729.504,770.243z"/>
		<path fill="#B07462" d="M1766.005,741.993c-22.851-11.68-30.299,8.995-30.746,9.475c-5.246,5.622-1.538,20.186,5.808,26.015
			l170.578,121.594c2.55,2.221,15.875-1.057,18.182-3.529c0.771-0.827,1.271-1.809,1.513-2.839
			c3.221-7.255-8.085-18.896-13.685-24.76C1890.156,839.149,1795.72,757.18,1766.005,741.993z"/>
		<g>
			<path fill="#F8B22B" d="M1677.871,881.663c-0.038,4.41,0.019,8.82,0.113,13.325c0.206,10.397,0.732,21,1.614,31.885
				c0.357,4.391,0.751,8.858,1.201,13.324c0.976,9.421,2.214,18.974,3.753,28.807c0.676,4.298,1.407,8.689,2.196,13.137
				c1.164,6.737,2.496,13.568,3.979,20.531c0.901,4.279,1.82,8.633,2.871,12.987c2.552,11.054,5.461,22.37,8.727,33.949
				c7.207-2.74,14.375-5.593,21.882-7.319c22.427-5.123,45.717,0.263,68.688,1.501c13.662,0.732,28.357-0.601,40.837-5.724
				c-2.046-6.193-3.997-12.255-5.874-18.148c-1.408-4.391-2.74-8.689-4.054-12.912c-1.483-4.823-2.928-9.609-4.26-14.225
				c-0.563-1.933-1.126-3.866-1.67-5.78c-0.732-2.458-1.426-4.898-2.102-7.3c-2.458-8.633-4.673-16.89-6.719-24.847
				c-1.126-4.485-2.233-8.858-3.266-13.156c-1.708-7.113-3.247-13.981-4.654-20.531c-0.957-4.692-1.877-9.196-2.721-13.606
				c-0.582-3.096-1.126-6.118-1.632-9.083c-8.314-48.287-6.944-79.497-1.37-100.891c5.086-19.48-0.506-40.124-15.07-53.955
				l-5.687-5.405c-3.172-3.021-6.606-5.536-10.209-7.507c-16.158-8.989-34.562-5.747-50.408,1.783
				c-30.567,14.525-26.968,52.06-29.37,67.055c-4.073,25.692-6.587,52.398-6.775,80.642
				C1677.871,880.688,1677.871,881.175,1677.871,881.663z"/>
		</g>
		<path fill="#EBC7B3" d="M2060.248,820.398c-1.6-7.188,0.263-14.701,5.018-20.325c12.196-14.424,36.117-40.851,47.749-40.944
			c16.001-0.128-15.98,51.647-51.856,65.359L2060.248,820.398z"/>
		<g>
			<path fill="#B07462" d="M2064.584,802.002c-42.29,11.101-130.382,48.94-152.684,65.394c-18.5,13.65-9.942,24.682-9.735,25.247
				c2.422,6.624,14.861,11.272,22.474,7.755l148.284-79.21L2064.584,802.002z"/>
		</g>
		<path fill="#B07462" d="M1714.035,732.503c1.013,28.789,48.344,91.395,48.344,91.395c8.802-52.773,6.399-79.591,2.064-93.178
			C1748.285,721.731,1728.804,723.026,1714.035,732.503z"/>
		<g>
			<path fill="#2D334A" d="M1798.064,716.416c0,0,4.96-13.67-1.382-25.657c-6.342-11.987-10.467,1.877-10.467,1.877
				L1798.064,716.416z"/>
			<path fill="#2D334A" d="M1713.157,687.699c0.688,1.287,10.585,25.796,14.783,26.145c5.756,0.479,3.633-18.594,3.633-18.594
				L1713.157,687.699z"/>
			<path fill="#2D334A" d="M1788.959,654.761c0,0,5.691-12.475,0.777-21.22c-4.669-8.309-12.851-17.079-45.11-10.174
				c-4.604,0.985-7.846,5.128-7.718,9.834l0.362,13.336L1788.959,654.761z"/>
			<path fill="#EBC7B3" d="M1728.233,680.104c3.288,19.203,7.434,34.871,19.803,42.779c4.338,2.776,9.736,5.108,16.061,5.842
				c3.953,0.457,8.263,0.294,12.9-0.78c12.092-2.794,17.937-9.307,20.2-18.515c2.602-10.552,0.51-24.643-2.242-40.739
				c-5.157-30.149-22.718-42.936-41.143-39.786C1735.391,632.056,1723.076,649.955,1728.233,680.104z"/>
			<path fill="#EBC7B3" d="M1726.13,681.969l32.048-2.168c0.301,4.388,2.407,46.153,0.317,61.808
				c-1.317,4.802-9.351,6.783-17.944,4.426c-7.725-2.119-13.221-7.019-13.306-11.477l-0.037-0.008
				C1728.46,725.162,1727.164,697.301,1726.13,681.969z"/>
			<path fill="#2D334A" d="M1714.05,689.758c0,0,8.141,2.118,14.59-5.109c8.492-9.517,16.028-29.861,17.846-39.076
				c3.199-16.213-1.605-20.361-1.605-20.361s-30.725,3.372-36.995,13.833C1698.503,654.703,1714.05,689.758,1714.05,689.758z"/>
			<path fill="#2D334A" d="M1736.547,663.673l7.498,43.997c0.793,4.65,4.269,8.357,8.854,9.452l5.261,1.254
				c3.24,0.772,6.376-1.613,6.498-4.941l0.333-9.094c0.075-2.036,1.486-3.775,3.461-4.272l19.643-4.922
				c2.099-0.524,4.281,0.492,5.228,2.434l3.94,8.092c3.885,7.986-0.205,17.565-8.664,20.276l-11.746,3.768
				c-2.509,0.805-5.171,0.98-7.756,0.524c-0.195-0.025-0.391-0.06-0.587-0.107l-0.346-0.082c-0.005-0.001-0.011-0.002-0.016-0.003
				l-4.062-0.969v0l-13.28-3.167c-8.103-1.929-14.268-8.511-15.667-16.727l-7.498-43.992L1736.547,663.673z"/>
			<path fill="#2D334A" d="M1743.42,639.077l19.45-3.154c6.522-1.058,13.207,0.27,18.83,3.739l7.64,4.714l-12.046-16.717
				l-16.606-3.321l-19.612,4.707L1743.42,639.077z"/>
			<path fill="#EBC7B3" d="M1715.41,684.893c1.069,6.436,8.826,13.606,13.487,12.832c4.661-0.774,4.96-6.185,3.892-12.621
				c-1.069-6.436-5.847-11.83-10.508-11.056C1717.619,674.822,1714.341,678.456,1715.41,684.893z"/>
		</g>
		<path fill="#B07462" d="M1677.89,880.2c0.019,0,0.019,0,0.037,0c20.644-1.877,26.274-75.006,26.274-103.219
			c0-20.644-13.137-16.89-13.137-16.89c-1.013,0.45-2.665,2.177-3.753,3.753c-3.397,11.748-3.228,20.663-5.63,35.657
			C1677.608,825.193,1678.077,851.955,1677.89,880.2z"/>
		<g>
			<defs>
				<path id="SVGID_00000020366229686896083230000002839750274680014210_" d="M1677.871,881.663
					c-0.038,4.41,0.019,8.82,0.113,13.325c0.206,10.397,0.732,21,1.614,31.885c0.357,4.391,0.751,8.858,1.201,13.324
					c0.976,9.421,2.214,18.974,3.753,28.807c0.676,4.298,1.407,8.689,2.196,13.137c1.164,6.737,2.496,13.568,3.979,20.531
					c0.901,4.279,1.82,8.633,2.871,12.987c2.552,11.054,5.461,22.37,8.727,33.949c7.207-2.74,14.375-5.593,21.882-7.319
					c22.427-5.123,45.717,0.263,68.688,1.501c13.662,0.732,28.357-0.601,40.837-5.724c-2.046-6.193-3.997-12.255-5.874-18.148
					c-1.408-4.391-2.74-8.689-4.054-12.912c-1.483-4.823-2.928-9.609-4.26-14.225c-0.563-1.933-1.126-3.866-1.67-5.78
					c-0.732-2.458-1.426-4.898-2.102-7.3c-2.458-8.633-4.673-16.89-6.719-24.847c-1.126-4.485-2.233-8.858-3.266-13.156
					c-1.708-7.113-3.247-13.981-4.654-20.531c-0.957-4.692-1.877-9.196-2.721-13.606c-0.582-3.096-1.126-6.118-1.632-9.083
					c-8.314-48.287-6.944-79.497-1.37-100.891c5.086-19.48-0.506-40.124-15.07-53.955l-5.687-5.405
					c-3.172-3.021-6.606-5.536-10.209-7.507c-16.158-8.989-34.869-6.362-50.408,1.783c-6.081,3.19-19.368,8.333-22.971,20.081
					c-0.056,0.206-0.131,0.432-0.188,0.638c-3.397,11.748-3.81,31.341-6.212,46.336c-4.073,25.692-6.587,52.398-6.775,80.642
					C1677.871,880.688,1677.871,881.175,1677.871,881.663z"/>
			</defs>
			<clipPath id="SVGID_00000181058657453747074210000013003345748248698280_">
				<use xlink:href="#SVGID_00000020366229686896083230000002839750274680014210_"  overflow="visible"/>
			</clipPath>
			<g clip-path="url(#SVGID_00000181058657453747074210000013003345748248698280_)">
				<path fill="#FFFFFF" d="M1717.75,920.71c-18.976,0-40.27-0.684-63.826-2.054l1.089-18.735
					c82.167,4.776,121.611,0.107,140.231-4.649c10.125-2.588,14.127-5.212,15.377-6.219c0.343-0.277,0.514-0.457,0.571-0.523
					c0.052-0.054-0.064,0.11-0.099,0.161c-0.022,0.049-0.139,0.268-0.183,0.347c-0.026,0.073-0.159,0.398-0.21,0.513
					c-0.029,0.115-0.18,0.615-0.212,0.705l8.344,2.03l10.075,1.44c-0.833,5.83-6.543,13.984-29.018,19.727
					C1780.979,918.286,1753.472,920.71,1717.75,920.71z"/>
			</g>
			<g clip-path="url(#SVGID_00000181058657453747074210000013003345748248698280_)">
				<path fill="#FFFFFF" d="M1717.75,965.75c-18.976,0-40.27-0.684-63.826-2.054l1.089-18.735
					c82.167,4.775,121.611,0.107,140.231-4.649c10.125-2.588,14.127-5.211,15.377-6.22c0.343-0.276,0.514-0.456,0.571-0.522
					c0.028-0.028-0.061,0.107-0.099,0.161c-0.023,0.049-0.139,0.268-0.183,0.347c-0.026,0.073-0.159,0.398-0.21,0.513
					c-0.029,0.115-0.18,0.615-0.212,0.705l8.345,2.03l10.074,1.44c-0.833,5.83-6.543,13.984-29.018,19.727
					C1780.979,963.327,1753.472,965.75,1717.75,965.75z"/>
			</g>
		</g>
		<g>
			<g>
				<path fill="#F7A509" d="M1737.565,602.222c-27.387,2.959-43.431,26.673-40.535,53.474c0.707,6.54,2.705,12.632,5.717,18.067
					l91.747-36.901C1787.396,614.469,1762.093,599.572,1737.565,602.222z"/>
			</g>
			<path fill="#F7A509" d="M1805.36,632.06c3.09,8.702-12.713,22.258-35.297,30.278c-22.584,8.02-43.398,7.467-46.488-1.236
				c-3.09-8.702,9.571-21.143,32.155-29.163C1778.315,623.92,1802.27,623.357,1805.36,632.06z"/>
			<g>
				<defs>
					<path id="SVGID_00000067948163416422382510000005650291305091719835_" d="M1737.565,602.222
						c-27.387,2.959-43.431,26.673-40.535,53.474c0.707,6.54,2.705,12.632,5.717,18.067l91.747-36.901
						C1787.396,614.469,1762.093,599.572,1737.565,602.222z"/>
				</defs>
				<use xlink:href="#SVGID_00000067948163416422382510000005650291305091719835_"  overflow="visible" fill="#F7A509"/>
				<clipPath id="SVGID_00000174586844252937332020000017561047183247370670_">
					<use xlink:href="#SVGID_00000067948163416422382510000005650291305091719835_"  overflow="visible"/>
				</clipPath>
				<g clip-path="url(#SVGID_00000174586844252937332020000017561047183247370670_)">
					<path fill="#F9BF50" d="M1773.11,657.572c-18.761-46.178-79.749-38.97-80.365-38.896l-2.349-18.452
						c0.765-0.097,18.992-2.332,40.179,2.462c29.044,6.573,49.712,23.131,59.769,47.883L1773.11,657.572z"/>
				</g>
			</g>
		</g>
		<path fill="#EBC7B3" d="M1669.201,1032.309c6.675-3.11,14.413-2.906,20.928,0.527c16.711,8.807,47.665,26.481,50.259,37.82
			c3.568,15.599-53.875-4.493-74.986-36.578L1669.201,1032.309z"/>
		<g>
			<path fill="#B07462" d="M1687.34,1031.821c-19.872-38.946-75.641-116.932-96.477-135.207
				c-17.284-15.16-26.235-4.445-26.743-4.122c-5.954,3.78-7.84,16.924-2.78,23.612l109.035,127.96L1687.34,1031.821z"/>
		</g>
	</g>
	<path fill="#FFFFFF" d="M2234.069,761.835c16.529,0,29.929-13.4,29.929-29.929c0,16.529,13.399,29.929,29.929,29.929
		c-16.529,0-29.929,13.399-29.929,29.929C2263.998,775.234,2250.598,761.835,2234.069,761.835z"/>
	<path fill="#FFFFFF" d="M1528.489,1364.806c16.529,0,29.929-13.4,29.929-29.929c0,16.529,13.4,29.929,29.929,29.929
		c-16.529,0-29.929,13.4-29.929,29.929C1558.418,1378.205,1545.018,1364.806,1528.489,1364.806z"/>
	<path fill="#FFFFFF" d="M2156.463,878.488c9.174,0,16.612-7.437,16.612-16.612c0,9.174,7.437,16.612,16.612,16.612
		c-9.175,0-16.612,7.437-16.612,16.612C2173.075,885.925,2165.637,878.488,2156.463,878.488z"/>
	<path fill="#FFFFFF" d="M1206.256,851.803c9.174,0,16.612-7.437,16.612-16.612c0,9.174,7.437,16.612,16.612,16.612
		c-9.174,0-16.612,7.437-16.612,16.612C1222.868,859.241,1215.43,851.803,1206.256,851.803z"/>
</g>
</svg>
